<svg height="41" viewBox="0 0 162 41" width="162" xmlns="http://www.w3.org/2000/svg" xmlns:xlink="http://www.w3.org/1999/xlink"><linearGradient id="a" x1="-.006325%" x2="100.013001%" y1="50.106582%" y2="50.106582%"><stop offset="0" stop-color="#1895ff"/><stop offset="1" stop-color="#64c4ff"/></linearGradient><linearGradient id="b" x1="-.060362%" x2="99.911683%" y1="50.024639%" y2="50.024639%"><stop offset="0" stop-color="#ffb800"/><stop offset="1" stop-color="#ffd03b"/></linearGradient><g fill="none" fill-rule="nonzero"><g fill="#fff" transform="translate(47.206607 2.725684)"><path d="m4.58382995 28.9831101h-3.51198912c-.5701281 0-.86659471-.2952825-.86659471-.8631334v-27.14327315c0-.5678509.29646661-.86313337.86659471-.86313337h3.51198912c.5701281 0 .86659471.29528247.86659471.86313337v27.14327315c0 .5678509-.27366149.8631334-.86659471.8631334z"/><path d="m10.3991366 4.52009319v-3.56610367c0-.54513687.2736615-.8177053.8209845-.8177053h3.5804045c.5473229 0 .8209844.24985439.8209844.77227722v3.61153175c0 .54513686-.2736615.8177053-.8209844.8177053h-3.5804045c-.547323 0-.8209845-.27256844-.8209845-.8177053zm0 23.59988351v-19.21607455c0-.5678509.2736615-.86313337.8209845-.86313337h3.5347942c.5701281 0 .8665947.29528247.8665947.86313337v19.21607455c0 .3634246-.0684154.5905649-.182441.7041351s-.3420768.1589983-.6385434.1589983h-3.5347943c-.5701281 0-.8665947-.2952825-.8665947-.8631334z"/><path d="m20.8210783 12.560862h-1.6419689c-.3192718 0-.547323-.0454281-.6841537-.1589983-.1140257-.1135702-.182441-.3179965-.182441-.658707v-2.83925455c0-.5678509.2964666-.86313337.8665947-.86313337h1.6419689c.2964666 0 .4561025-.15899825.4561025-.45428072v-3.90681421c0-.5678509.2964666-.86313337.912205-.86313337h3.4663788c.5701281 0 .8665947.29528247.8665947.86313337v3.90681421c0 .29528247.1596359.45428072.5017128.45428072h3.2155225c.5701281 0 .8665947.29528247.8665947.86313337v2.83925455c0 .2952824-.0684154.5224228-.182441.635993s-.3420769.1817123-.6841537.1817123h-3.2155225c-.3192718 0-.5017128.1589982-.5017128.4542807v9.0629004c0 .8404193.182441 1.4536983.5701281 1.8171229.3876872.3634246 1.0262306.5451369 1.8928253.5451369h1.641969c.5701281 0 .8665947.2952824.8665947.8631333v2.8619686c0 .2952824-.0684154.5224228-.182441.635993s-.3420769.1817123-.6841537.1817123h-2.5085637c-2.1664868 0-3.8540659-.5678509-5.0399324-1.7262668-1.1858665-1.1584158-1.8016048-2.7938264-1.8016048-4.9289458v-9.3127548c0-.2952825-.1368307-.4542807-.4561025-.4542807z"/><path d="m50.4221294 28.9831101h-9.0992445c-2.1664868 0-3.854066-.5678509-5.0399324-1.7262668-1.1858665-1.1584158-1.7787997-2.8165404-1.7787997-4.9743739v-7.563774c0-2.1578334.5929332-3.8159581 1.7787997-4.97437391 1.1858664-1.15841584 2.8506405-1.72626674 5.0399324-1.72626674h3.2611327c2.1664868 0 3.854066.5678509 5.0399325 1.72626674 1.1858664 1.15841581 1.7787997 2.81654051 1.7787997 4.97437391v5.2242283c0 .5678509-.2964667.8631334-.8665948.8631334h-10.3535263c-.3192717 0-.5017127.1589982-.5017127.4542807v.9085614c0 .8404194.182441 1.4536984.5473229 1.8171229.364882.3634246 1.0034255.5451369 1.8700202.5451369h8.3238703c.5701281 0 .8665947.2952825.8665947.9085614v2.7256844c0 .2952824-.0684153.5224228-.182441.635993-.1140256.1135702-.3420768.1817123-.6841537.1817123zm-10.2623058-11.6523005h5.6100605c.2964666 0 .4561025-.1589983.4561025-.4542808v-1.9761211c0-.8858474-.182441-1.4991264-.5245179-1.8398369-.364882-.3634246-.9806203-.5451369-1.847215-.5451369h-1.7331895c-.8893998 0-1.5051382.1817123-1.847215.5451369-.364882.3634245-.547323.9767035-.547323 1.8398369v1.9761211c-.0228051.2952825.1368308.4542808.4332974.4542808z"/><path d="m55.2796209 28.1199767v-27.14327315c0-.5678509.2964666-.86313337.8665947-.86313337h3.5119891c.5701281 0 .8665947.29528247.8665947.86313337v9.24461265h.1596359c.2964666-.74956314.8437896-1.29470001 1.5963587-1.68083862.7753742-.38613862 1.5735535-.56785091 2.4401482-.56785091h1.3226972c2.1664868 0 3.854066.56785091 5.0399325 1.72626675 1.1858664 1.15841588 1.7787996 2.81654048 1.7787996 4.97437388v7.6319162c0 2.1578334-.5929332 3.815958-1.7787996 4.9743739-1.1858665 1.1584158-2.8506405 1.7262667-5.0399325 1.7262667h-9.8974238c-.5701281-.022714-.8665947-.3179965-.8665947-.8858474zm5.701281-3.6569598h4.1961428c.8893999 0 1.5051382-.1817123 1.8700202-.5451369s.547323-.9994176.547323-1.8625509v-7.1549214c0-.8858474-.182441-1.4991264-.547323-1.862551s-1.0034255-.5451368-1.8700202-.5451368h-1.8244099c-1.8928253 0-2.8506405 1.0448456-2.8506405 3.1118229v8.4269074c.0228051.2952825.182441.4315667.4789076.4315667z"/><path d="m87.0243536 28.9831101h-3.671625c-2.1664868 0-3.8540659-.5678509-5.0399324-1.7262668-1.1858664-1.1584158-1.7787997-2.8165404-1.7787997-4.9743739v-7.563774c0-2.1578334.5929333-3.8159581 1.7787997-4.97437391 1.1858665-1.15841584 2.8506405-1.72626674 5.0399324-1.72626674h3.671625c2.1436817 0 3.8084557.59056494 5.0171273 1.74898078 1.1858665 1.15841587 1.8016048 2.81654047 1.8016048 4.95165987v7.563774c0 2.1351194-.5929332 3.7932441-1.8016048 4.9516599-1.2086716 1.1811299-2.8734456 1.7489808-5.0171273 1.7489808zm-2.8734456-4.4746651h2.0980714c.8893998 0 1.5051382-.1817123 1.8700202-.5451369s.547323-.9767036.547323-1.8398369v-7.2230635c0-.8858474-.182441-1.4991264-.547323-1.8398369-.364882-.3634246-1.0034255-.5451369-1.8700202-.5451369h-2.0980714c-.8893999 0-1.5051382.1817123-1.8472151.5451369-.364882.3634245-.547323.9767035-.547323 1.8398369v7.2230635c0 .8858474.182441 1.4991264.547323 1.8398369.3420769.3634246.9578152.5451369 1.8472151.5451369z"/><path d="m101.323166 28.9831101h-4.1733373c-.7069588 0-.9122049-.2952825-.5701281-.8631334l5.1995684-9.8124636-5.1995684-9.40361095c-.2736615-.5678509-.1140256-.86313337.5017128-.86313337h4.1961426c.661349 0 1.094646.29528247 1.277087.86313337l2.599784 6.24635995h.159636l2.257707-6.24635995c.182441-.5678509.615739-.86313337 1.277087-.86313337h4.127728c.706959 0 .8894.29528247.547323.86313337l-4.948712 9.40361095 5.313594 9.8124636c.136831.2498544.159636.4542807.068415.613279-.09122.1589982-.273661.2498544-.547323.2498544h-4.241753c-.570128 0-.98062-.2952825-1.231477-.8631334l-2.599784-6.291788h-.159636l-2.599784 6.291788c-.205246.5678509-.615738.8631334-1.254282.8631334z"/></g><g><path d="m10.2395007 14.3325568 6.4538502-3.7251019c.3876871-.2271404.8665947-.2271404 1.2542818 0l6.4082399 3.6796738 9.190465-5.17880022-15.1654076-8.72218987c-.6613486-.38613861-1.4595279-.38613861-2.0980714 0l-15.18821264 8.72218987z" fill="url(#a)"/><path d="m25.4733236 15.7635411v7.7909143c0 .4542808-.2508563.8631334-.6385434 1.0902738l-6.6590963 3.8386721v10.4484566l15.3478485-8.813046c.6613486-.3861386 1.0490358-1.0675597 1.0490358-1.8171229v-17.6715201z" fill="url(#b)"/><path d="m16.4881047 28.4834013-6.65909621-3.8386721c-.38768711-.2271404-.63854347-.635993-.63854347-1.0902738v-7.7909143l-9.09924452-5.1333722v17.6715201c0 .7495632.41049223 1.4536983 1.04903571 1.8171229l15.32504339 8.813046v-10.4484566z" fill="#fff"/></g></g></svg>